<svg width="153" height="35" viewBox="0 0 153 35" fill="none" xmlns="http://www.w3.org/2000/svg">
<g clip-path="url(#clip0_2023_936)">
<path d="M12.5466 4.09616L0 11.3685V31.3638L6.27332 35V29.5457L12.5466 33.1819L25.0933 25.9096V11.3685L12.5466 4.09616ZM18.82 22.2734L12.5466 25.9096L6.27332 22.2734V15.001L12.5466 11.3649L18.82 15.001V22.2734Z" fill="#C2191F"/>
<path d="M110.567 25.9096V11.3685L98.0202 4.09619L91.7469 7.73236V3.05206L85.4736 6.68824V11.3685V25.9132L98.0202 33.1856L110.567 25.9132V25.9096ZM104.294 22.2734L98.0202 25.9096L91.7469 22.2734V15.0011L98.0202 11.3649L104.294 15.0011V22.2734Z" fill="#2B2929"/>
<path d="M143.726 2.69792V8.06092L139.093 10.7479V16.1218L148.363 10.7479V0L143.726 2.69792Z" fill="#C2191F"/>
<path d="M148.363 16.1109V10.7479L153 8.06092V2.68698L143.73 8.06092V18.8088L148.363 16.1109Z" fill="#79161B"/>
<path d="M18.82 15.0193V22.2734L12.5466 25.9096V33.1819L25.0933 25.9096V11.3685L18.82 15.0193Z" fill="#79161B"/>
<path d="M77.2219 11.3685V22.2734L70.9486 25.9096L64.6752 22.2734V11.3685L58.4019 7.73236V25.9096L64.6752 29.5458L70.9486 33.1819L83.4952 25.9096V7.73236L77.2219 11.3685Z" fill="#2B2929"/>
<path d="M125.092 25.9096L118.819 22.2734V15.001L125.092 18.6372L131.365 15.001L137.639 11.3685L125.092 4.09616L112.545 11.3685V25.9096L118.819 29.5457L125.092 33.1819L137.639 25.9096L131.365 22.2734L125.092 25.9096Z" fill="#2B2929"/>
<path d="M6.28787 14.9937L12.5466 11.3685L18.82 15.001L25.0933 11.3649L12.5466 4.09616L0 11.3685L6.28787 14.9937Z" fill="#E60024"/>
<path d="M43.8769 25.9096L37.6036 22.2734V15.001L37.6181 14.9937L43.8769 11.3685L50.1502 15.001L54.8634 12.2703L56.4235 11.3685L43.8769 4.09616L31.3302 11.3685V25.9096L37.6036 29.5457L43.8769 33.1819L56.4235 25.9096L50.1502 22.2734L43.8769 25.9096Z" fill="#2B2929"/>
<g style="mix-blend-mode:screen" opacity="0.25">
<path d="M125.092 4.09616L112.545 11.3685L125.092 18.6372L137.639 11.3685L125.092 4.09616Z" fill="#C0BFBF"/>
</g>
<g style="mix-blend-mode:multiply">
<path d="M125.092 25.9096V33.1819L137.639 25.9096L131.365 22.2734L125.092 25.9096Z" fill="#7E7D7E"/>
</g>
</g>
<defs>
<clipPath id="clip0_2023_936">
<rect width="153" height="35" fill="white"/>
</clipPath>
</defs>
</svg>
